# This file uses centimeters as units for non-parametric coordinates.

mtllib armoire2.mtl
g default
v -1.000000 0.000000 2.500000
v 1.000000 0.000000 2.500000
v -1.000000 10.000000 2.500000
v 1.000000 10.000000 2.500000
v -1.000000 10.000000 -2.500000
v 1.000000 10.000000 -2.500000
v -1.000000 0.000000 -2.500000
v 1.000000 0.000000 -2.500000
vt 0.007653 -1.077452
vt 0.992347 -1.077452
vt 0.007653 -0.038726
vt 0.992347 -0.038726
vt 0.007653 1.000000
vt 0.992347 1.000000
vt 0.007653 2.038726
vt 0.992347 2.038726
vt 0.007653 3.077452
vt 0.992347 3.077452
vt 1.977041 -1.077452
vt 1.977041 -0.038726
vt -0.977041 -1.077452
vt -0.977041 -0.038726
vn 0.000000 0.000000 1.000000
vn 0.000000 0.000000 1.000000
vn 0.000000 0.000000 1.000000
vn 0.000000 0.000000 1.000000
vn 0.000000 1.000000 0.000000
vn 0.000000 1.000000 0.000000
vn 0.000000 1.000000 0.000000
vn 0.000000 1.000000 0.000000
vn 0.000000 0.000000 -1.000000
vn 0.000000 0.000000 -1.000000
vn 0.000000 0.000000 -1.000000
vn 0.000000 0.000000 -1.000000
vn 0.000000 -1.000000 0.000000
vn 0.000000 -1.000000 0.000000
vn 0.000000 -1.000000 0.000000
vn 0.000000 -1.000000 0.000000
vn 1.000000 0.000000 0.000000
vn 1.000000 0.000000 0.000000
vn 1.000000 0.000000 0.000000
vn 1.000000 0.000000 0.000000
vn -1.000000 0.000000 0.000000
vn -1.000000 0.000000 0.000000
vn -1.000000 0.000000 0.000000
vn -1.000000 0.000000 0.000000
s off
g pCube1
usemtl lambert2SG
f 1/1/1 2/2/2 4/4/3 3/3/4
f 3/3/5 4/4/6 6/6/7 5/5/8
f 5/5/9 6/6/10 8/8/11 7/7/12
f 7/7/13 8/8/14 2/10/15 1/9/16
usemtl initialShadingGroup
f 2/2/17 8/11/18 6/12/19 4/4/20
usemtl lambert2SG
f 7/13/21 1/1/22 3/3/23 5/14/24
