# This file uses centimeters as units for non-parametric coordinates.

mtllib hauteur3.mtl
g default
v -5.100000 0.000000 5.000000
v 4.900000 0.000000 5.000000
v -5.100000 6.000000 5.000000
v 4.900000 6.000000 5.000000
v -5.100000 6.000000 -5.000000
v 4.900000 6.000000 -5.000000
v -5.100000 0.000000 -5.000000
v 4.900000 0.000000 -5.000000
vt 0.002451 -1.990196
vt 0.997549 -1.990196
vt 0.002451 -0.995098
vt 0.997549 -0.995098
vt 0.002451 0.000000
vt 0.997549 0.000000
vt 0.002451 0.995098
vt 0.997549 0.995098
vt 0.002451 1.990196
vt 0.997549 1.990196
vt 1.992647 -1.990196
vt 1.992647 -0.995098
vt -0.992647 -1.990196
vt -0.992647 -0.995098
vn 0.000000 0.000000 1.000000
vn 0.000000 0.000000 1.000000
vn 0.000000 0.000000 1.000000
vn 0.000000 0.000000 1.000000
vn 0.000000 1.000000 0.000000
vn 0.000000 1.000000 0.000000
vn 0.000000 1.000000 0.000000
vn 0.000000 1.000000 0.000000
vn 0.000000 0.000000 -1.000000
vn 0.000000 0.000000 -1.000000
vn 0.000000 0.000000 -1.000000
vn 0.000000 0.000000 -1.000000
vn 0.000000 -1.000000 0.000000
vn 0.000000 -1.000000 0.000000
vn 0.000000 -1.000000 0.000000
vn 0.000000 -1.000000 0.000000
vn 1.000000 0.000000 0.000000
vn 1.000000 0.000000 0.000000
vn 1.000000 0.000000 0.000000
vn 1.000000 0.000000 0.000000
vn -1.000000 0.000000 0.000000
vn -1.000000 0.000000 0.000000
vn -1.000000 0.000000 0.000000
vn -1.000000 0.000000 0.000000
s off
g pasted__pasted__pCube4 pasted__group group2
usemtl initialShadingGroup
f 1/1/1 2/2/2 4/4/3 3/3/4
f 3/3/5 4/4/6 6/6/7 5/5/8
f 5/5/9 6/6/10 8/8/11 7/7/12
f 7/7/13 8/8/14 2/10/15 1/9/16
f 2/2/17 8/11/18 6/12/19 4/4/20
f 7/13/21 1/1/22 3/3/23 5/14/24
