# This file uses centimeters as units for non-parametric coordinates.

mtllib salle6.mtl
g default
v -100.000000 0.000000 100.000000
v 100.000000 0.000000 100.000000
v -100.000000 90.000000 100.000000
v 100.000000 90.000000 100.000000
v -100.000000 90.000000 -100.000000
v 100.000000 90.000000 -100.000000
v -100.000000 0.000000 -100.000000
v 100.000000 0.000000 -100.000000
vt -1.000901 -5.000402
vt 2.000901 -5.000402
vt -1.000901 -1.998599
vt 2.000901 -1.998599
vt -1.000901 1.003204
vt 2.000901 1.003204
vt -1.000901 4.005008
vt 2.000901 4.005008
vt 5.002705 -5.000402
vt 5.002705 -1.998599
vt -4.002705 -5.000402
vt -4.002705 -1.998599
vn 0.000000 0.000000 1.000000
vn 0.000000 0.000000 1.000000
vn 0.000000 0.000000 1.000000
vn 0.000000 0.000000 1.000000
vn 0.000000 0.000000 -1.000000
vn 0.000000 0.000000 -1.000000
vn 0.000000 0.000000 -1.000000
vn 0.000000 0.000000 -1.000000
vn 1.000000 0.000000 0.000000
vn 1.000000 0.000000 0.000000
vn 1.000000 0.000000 0.000000
vn 1.000000 0.000000 0.000000
vn -1.000000 0.000000 0.000000
vn -1.000000 0.000000 0.000000
vn -1.000000 0.000000 0.000000
vn -1.000000 0.000000 0.000000
s off
g pCube1
usemtl initialShadingGroup
f 1/1/1 2/2/2 4/4/3 3/3/4
f 5/5/5 6/6/6 8/8/7 7/7/8
f 2/2/9 8/9/10 6/10/11 4/4/12
f 7/11/13 1/1/14 3/3/15 5/12/16
g default
v -100.000000 -0.000000 100.000000
v 100.000000 -0.000000 100.000000
v -100.000000 0.000000 -100.000000
v 100.000000 0.000000 -100.000000
vt -1.108711 -0.852202
vt 2.108711 -0.852202
vt -1.108711 1.620845
vt 2.108711 1.620845
vn 0.000000 1.000000 0.000000
vn 0.000000 1.000000 0.000000
vn 0.000000 1.000000 0.000000
vn 0.000000 1.000000 0.000000
s off
g pPlane1
usemtl lambert2SG
f 9/13/17 10/14/18 12/16/19 11/15/20
g default
v -100.000000 90.000000 100.000000
v 100.000000 90.000000 100.000000
v -100.000000 90.000000 -100.000000
v 100.000000 90.000000 -100.000000
vt 0.000000 0.000000
vt 1.000000 0.000000
vt 0.000000 1.000000
vt 1.000000 1.000000
vn 0.000000 1.000000 0.000000
vn 0.000000 1.000000 0.000000
vn 0.000000 1.000000 0.000000
vn 0.000000 1.000000 0.000000
s off
g pPlane2
usemtl lambert3SG
f 13/17/21 14/18/22 16/20/23 15/19/24
g default
v 80.000000 0.000000 100.000000
v 100.000000 0.000000 100.000000
v 80.000000 6.000000 100.000000
v 100.000000 6.000000 100.000000
v 80.000000 6.000000 80.000000
v 100.000000 6.000000 80.000000
v 80.000000 0.000000 80.000000
v 100.000000 0.000000 80.000000
vt 0.375000 0.000000
vt 0.625000 0.000000
vt 0.375000 0.250000
vt 0.625000 0.250000
vt 0.375000 0.500000
vt 0.625000 0.500000
vt 0.375000 0.750000
vt 0.625000 0.750000
vt 0.375000 1.000000
vt 0.625000 1.000000
vt 0.875000 0.000000
vt 0.875000 0.250000
vt 0.125000 0.000000
vt 0.125000 0.250000
vn 0.000000 0.000000 1.000000
vn 0.000000 0.000000 1.000000
vn 0.000000 0.000000 1.000000
vn 0.000000 0.000000 1.000000
vn 0.000000 1.000000 0.000000
vn 0.000000 1.000000 0.000000
vn 0.000000 1.000000 0.000000
vn 0.000000 1.000000 0.000000
vn 0.000000 0.000000 -1.000000
vn 0.000000 0.000000 -1.000000
vn 0.000000 0.000000 -1.000000
vn 0.000000 0.000000 -1.000000
vn 0.000000 -1.000000 0.000000
vn 0.000000 -1.000000 0.000000
vn 0.000000 -1.000000 0.000000
vn 0.000000 -1.000000 0.000000
vn 1.000000 0.000000 0.000000
vn 1.000000 0.000000 0.000000
vn 1.000000 0.000000 0.000000
vn 1.000000 0.000000 0.000000
vn -1.000000 0.000000 0.000000
vn -1.000000 0.000000 0.000000
vn -1.000000 0.000000 0.000000
vn -1.000000 0.000000 0.000000
s off
g pCube2
usemtl lambert4SG
f 17/21/25 18/22/26 20/24/27 19/23/28
f 19/23/29 20/24/30 22/26/31 21/25/32
f 21/25/33 22/26/34 24/28/35 23/27/36
f 23/27/37 24/28/38 18/30/39 17/29/40
f 18/22/41 24/31/42 22/32/43 20/24/44
f 23/33/45 17/21/46 19/23/47 21/34/48
g default
v 80.000000 0.000000 -80.000000
v 100.000000 0.000000 -80.000000
v 80.000000 6.000000 -80.000000
v 100.000000 6.000000 -80.000000
v 80.000000 6.000000 -100.000000
v 100.000000 6.000000 -100.000000
v 80.000000 0.000000 -100.000000
v 100.000000 0.000000 -100.000000
vt 0.375000 0.000000
vt 0.625000 0.000000
vt 0.375000 0.250000
vt 0.625000 0.250000
vt 0.375000 0.500000
vt 0.625000 0.500000
vt 0.375000 0.750000
vt 0.625000 0.750000
vt 0.375000 1.000000
vt 0.625000 1.000000
vt 0.875000 0.000000
vt 0.875000 0.250000
vt 0.125000 0.000000
vt 0.125000 0.250000
vn 0.000000 0.000000 1.000000
vn 0.000000 0.000000 1.000000
vn 0.000000 0.000000 1.000000
vn 0.000000 0.000000 1.000000
vn 0.000000 1.000000 0.000000
vn 0.000000 1.000000 0.000000
vn 0.000000 1.000000 0.000000
vn 0.000000 1.000000 0.000000
vn 0.000000 0.000000 -1.000000
vn 0.000000 0.000000 -1.000000
vn 0.000000 0.000000 -1.000000
vn 0.000000 0.000000 -1.000000
vn 0.000000 -1.000000 0.000000
vn 0.000000 -1.000000 0.000000
vn 0.000000 -1.000000 0.000000
vn 0.000000 -1.000000 0.000000
vn 1.000000 0.000000 0.000000
vn 1.000000 0.000000 0.000000
vn 1.000000 0.000000 0.000000
vn 1.000000 0.000000 0.000000
vn -1.000000 0.000000 0.000000
vn -1.000000 0.000000 0.000000
vn -1.000000 0.000000 0.000000
vn -1.000000 0.000000 0.000000
s off
g pasted__pCube2 group13
usemtl lambert4SG
f 25/35/49 26/36/50 28/38/51 27/37/52
f 27/37/53 28/38/54 30/40/55 29/39/56
f 29/39/57 30/40/58 32/42/59 31/41/60
f 31/41/61 32/42/62 26/44/63 25/43/64
f 26/36/65 32/45/66 30/46/67 28/38/68
f 31/47/69 25/35/70 27/37/71 29/48/72
g default
v -100.000000 64.000000 10.000000
v -80.000000 64.000000 10.000000
v -100.000000 70.000000 10.000000
v -80.000000 70.000000 10.000000
v -100.000000 70.000000 -10.000000
v -80.000000 70.000000 -10.000000
v -100.000000 64.000000 -10.000000
v -80.000000 64.000000 -10.000000
vt 0.375000 0.000000
vt 0.625000 0.000000
vt 0.375000 0.250000
vt 0.625000 0.250000
vt 0.375000 0.500000
vt 0.625000 0.500000
vt 0.375000 0.750000
vt 0.625000 0.750000
vt 0.375000 1.000000
vt 0.625000 1.000000
vt 0.875000 0.000000
vt 0.875000 0.250000
vt 0.125000 0.000000
vt 0.125000 0.250000
vn 0.000000 0.000000 1.000000
vn 0.000000 0.000000 1.000000
vn 0.000000 0.000000 1.000000
vn 0.000000 0.000000 1.000000
vn 0.000000 1.000000 0.000000
vn 0.000000 1.000000 0.000000
vn 0.000000 1.000000 0.000000
vn 0.000000 1.000000 0.000000
vn 0.000000 0.000000 -1.000000
vn 0.000000 0.000000 -1.000000
vn 0.000000 0.000000 -1.000000
vn 0.000000 0.000000 -1.000000
vn 0.000000 -1.000000 0.000000
vn 0.000000 -1.000000 0.000000
vn 0.000000 -1.000000 0.000000
vn 0.000000 -1.000000 0.000000
vn 1.000000 0.000000 0.000000
vn 1.000000 0.000000 0.000000
vn 1.000000 0.000000 0.000000
vn 1.000000 0.000000 0.000000
vn -1.000000 0.000000 0.000000
vn -1.000000 0.000000 0.000000
vn -1.000000 0.000000 0.000000
vn -1.000000 0.000000 0.000000
s off
g pasted__pasted__pCube2 pasted__group13 group14
usemtl pasted__lambert4SG
f 33/49/73 34/50/74 36/52/75 35/51/76
f 35/51/77 36/52/78 38/54/79 37/53/80
f 37/53/81 38/54/82 40/56/83 39/55/84
f 39/55/85 40/56/86 34/58/87 33/57/88
f 34/50/89 40/59/90 38/60/91 36/52/92
f 39/61/93 33/49/94 35/51/95 37/62/96
