# This file uses centimeters as units for non-parametric coordinates.

mtllib tp.mtl
g default
v -3.000000 0.000000 3.000000
v -3.000000 24.000000 3.000000
v -3.000000 0.000000 -3.000000
v -3.000000 24.000000 -3.000000
vt 0.309598 0.394479
vt 0.690402 0.394479
vt 0.309598 0.605521
vt 0.690402 0.605521
vn -1.000000 0.000000 0.000000
vn -1.000000 0.000000 0.000000
vn -1.000000 0.000000 0.000000
vn -1.000000 0.000000 0.000000
s off
g pPlane1
usemtl pasted__pasted__pasted__pasted__pasted__pasted__pasted__pasted__lambert2SG
f 1/1/1 2/2/2 4/4/3 3/3/4
g default
v 2.500000 -0.250000 3.500000
v 3.500000 -0.250000 3.500000
v 2.500000 23.750000 3.500000
v 3.500000 23.750000 3.500000
v 2.500000 23.750000 2.500000
v 3.500000 23.750000 2.500000
v 2.500000 -0.250000 2.500000
v 3.500000 -0.250000 2.500000
vt 0.442459 -4.371604
vt 0.657541 -4.371604
vt 0.657541 -1.935802
vt 0.442459 -1.935802
vt 0.657541 0.500000
vt 0.442459 0.500000
vt 0.657541 2.935802
vt 0.442459 2.935802
vt 0.657541 5.371604
vt 0.442459 5.371604
vt 0.872622 -4.371604
vt 0.872622 -1.935802
vt 0.227378 -4.371604
vt 0.227378 -1.935802
vn 0.000000 0.000000 1.000000
vn 0.000000 0.000000 1.000000
vn 0.000000 0.000000 1.000000
vn 0.000000 0.000000 1.000000
vn 0.000000 1.000000 0.000000
vn 0.000000 1.000000 0.000000
vn 0.000000 1.000000 0.000000
vn 0.000000 1.000000 0.000000
vn 0.000000 0.000000 -1.000000
vn 0.000000 0.000000 -1.000000
vn 0.000000 0.000000 -1.000000
vn 0.000000 0.000000 -1.000000
vn 0.000000 -1.000000 0.000000
vn 0.000000 -1.000000 0.000000
vn 0.000000 -1.000000 0.000000
vn 0.000000 -1.000000 0.000000
vn 1.000000 0.000000 0.000000
vn 1.000000 0.000000 0.000000
vn 1.000000 0.000000 0.000000
vn 1.000000 0.000000 0.000000
vn -1.000000 0.000000 0.000000
vn -1.000000 0.000000 0.000000
vn -1.000000 0.000000 0.000000
vn -1.000000 0.000000 0.000000
s off
g polySurface7 polySurface3
usemtl initialShadingGroup
f 5/5/5 6/6/6 8/7/7 7/8/8
f 7/8/9 8/7/10 10/9/11 9/10/12
f 9/10/13 10/9/14 12/11/15 11/12/16
f 11/12/17 12/11/18 6/13/19 5/14/20
f 6/6/21 12/15/22 10/16/23 8/7/24
f 11/17/25 5/5/26 7/8/27 9/18/28
g default
v -3.500000 -0.250000 -2.500000
v -2.500000 -0.250000 -2.500000
v -3.500000 23.750000 -2.500000
v -2.500000 23.750000 -2.500000
v -3.500000 23.750000 -3.500000
v -2.500000 23.750000 -3.500000
v -3.500000 -0.250000 -3.500000
v -2.500000 -0.250000 -3.500000
vt 0.442459 -4.371604
vt 0.657541 -4.371604
vt 0.657541 -1.935802
vt 0.442459 -1.935802
vt 0.657541 0.500000
vt 0.442459 0.500000
vt 0.657541 2.935802
vt 0.442459 2.935802
vt 0.657541 5.371604
vt 0.442459 5.371604
vt 0.872622 -4.371604
vt 0.872622 -1.935802
vt 0.227378 -4.371604
vt 0.227378 -1.935802
vn 0.000000 0.000000 1.000000
vn 0.000000 0.000000 1.000000
vn 0.000000 0.000000 1.000000
vn 0.000000 0.000000 1.000000
vn 0.000000 1.000000 0.000000
vn 0.000000 1.000000 0.000000
vn 0.000000 1.000000 0.000000
vn 0.000000 1.000000 0.000000
vn 0.000000 0.000000 -1.000000
vn 0.000000 0.000000 -1.000000
vn 0.000000 0.000000 -1.000000
vn 0.000000 0.000000 -1.000000
vn 0.000000 -1.000000 0.000000
vn 0.000000 -1.000000 0.000000
vn 0.000000 -1.000000 0.000000
vn 0.000000 -1.000000 0.000000
vn 1.000000 0.000000 0.000000
vn 1.000000 0.000000 0.000000
vn 1.000000 0.000000 0.000000
vn 1.000000 0.000000 0.000000
vn -1.000000 0.000000 0.000000
vn -1.000000 0.000000 0.000000
vn -1.000000 0.000000 0.000000
vn -1.000000 0.000000 0.000000
s off
g polySurface3 polySurface8
usemtl initialShadingGroup
f 13/19/29 14/20/30 16/21/31 15/22/32
f 15/22/33 16/21/34 18/23/35 17/24/36
f 17/24/37 18/23/38 20/25/39 19/26/40
f 19/26/41 20/25/42 14/27/43 13/28/44
f 14/20/45 20/29/46 18/30/47 16/21/48
f 19/31/49 13/19/50 15/22/51 17/32/52
g default
v 2.500000 -0.250000 -2.500000
v 3.500000 -0.250000 -2.500000
v 2.500000 23.750000 -2.500000
v 3.500000 23.750000 -2.500000
v 2.500000 23.750000 -3.500000
v 3.500000 23.750000 -3.500000
v 2.500000 -0.250000 -3.500000
v 3.500000 -0.250000 -3.500000
vt 0.442459 -4.371604
vt 0.657541 -4.371604
vt 0.657541 -1.935802
vt 0.442459 -1.935802
vt 0.657541 0.500000
vt 0.442459 0.500000
vt 0.657541 2.935802
vt 0.442459 2.935802
vt 0.657541 5.371604
vt 0.442459 5.371604
vt 0.872622 -4.371604
vt 0.872622 -1.935802
vt 0.227378 -4.371604
vt 0.227378 -1.935802
vn 0.000000 0.000000 1.000000
vn 0.000000 0.000000 1.000000
vn 0.000000 0.000000 1.000000
vn 0.000000 0.000000 1.000000
vn 0.000000 1.000000 0.000000
vn 0.000000 1.000000 0.000000
vn 0.000000 1.000000 0.000000
vn 0.000000 1.000000 0.000000
vn 0.000000 0.000000 -1.000000
vn 0.000000 0.000000 -1.000000
vn 0.000000 0.000000 -1.000000
vn 0.000000 0.000000 -1.000000
vn 0.000000 -1.000000 0.000000
vn 0.000000 -1.000000 0.000000
vn 0.000000 -1.000000 0.000000
vn 0.000000 -1.000000 0.000000
vn 1.000000 0.000000 0.000000
vn 1.000000 0.000000 0.000000
vn 1.000000 0.000000 0.000000
vn 1.000000 0.000000 0.000000
vn -1.000000 0.000000 0.000000
vn -1.000000 0.000000 0.000000
vn -1.000000 0.000000 0.000000
vn -1.000000 0.000000 0.000000
s off
g polySurface3 polySurface10
usemtl initialShadingGroup
f 21/33/53 22/34/54 24/35/55 23/36/56
f 23/36/57 24/35/58 26/37/59 25/38/60
f 25/38/61 26/37/62 28/39/63 27/40/64
f 27/40/65 28/39/66 22/41/67 21/42/68
f 22/34/69 28/43/70 26/44/71 24/35/72
f 27/45/73 21/33/74 23/36/75 25/46/76
g default
v -3.500000 -0.250000 3.500000
v -2.500000 -0.250000 3.500000
v -3.500000 23.750000 3.500000
v -2.500000 23.750000 3.500000
v -3.500000 23.750000 2.500000
v -2.500000 23.750000 2.500000
v -3.500000 -0.250000 2.500000
v -2.500000 -0.250000 2.500000
vt 0.442459 -4.371604
vt 0.657541 -4.371604
vt 0.657541 -1.935802
vt 0.442459 -1.935802
vt 0.657541 0.500000
vt 0.442459 0.500000
vt 0.657541 2.935802
vt 0.442459 2.935802
vt 0.657541 5.371604
vt 0.442459 5.371604
vt 0.872622 -4.371604
vt 0.872622 -1.935802
vt 0.227378 -4.371604
vt 0.227378 -1.935802
vn 0.000000 0.000000 1.000000
vn 0.000000 0.000000 1.000000
vn 0.000000 0.000000 1.000000
vn 0.000000 0.000000 1.000000
vn 0.000000 1.000000 0.000000
vn 0.000000 1.000000 0.000000
vn 0.000000 1.000000 0.000000
vn 0.000000 1.000000 0.000000
vn 0.000000 0.000000 -1.000000
vn 0.000000 0.000000 -1.000000
vn 0.000000 0.000000 -1.000000
vn 0.000000 0.000000 -1.000000
vn 0.000000 -1.000000 0.000000
vn 0.000000 -1.000000 0.000000
vn 0.000000 -1.000000 0.000000
vn 0.000000 -1.000000 0.000000
vn 1.000000 0.000000 0.000000
vn 1.000000 0.000000 0.000000
vn 1.000000 0.000000 0.000000
vn 1.000000 0.000000 0.000000
vn -1.000000 0.000000 0.000000
vn -1.000000 0.000000 0.000000
vn -1.000000 0.000000 0.000000
vn -1.000000 0.000000 0.000000
s off
g polySurface3 polySurface11
usemtl initialShadingGroup
f 29/47/77 30/48/78 32/49/79 31/50/80
f 31/50/81 32/49/82 34/51/83 33/52/84
f 33/52/85 34/51/86 36/53/87 35/54/88
f 35/54/89 36/53/90 30/55/91 29/56/92
f 30/48/93 36/57/94 34/58/95 32/49/96
f 35/59/97 29/47/98 31/50/99 33/60/100
g default
v -3.500000 23.250000 3.500000
v 3.500000 23.250000 3.500000
v -3.500000 24.250000 3.500000
v 3.500000 24.250000 3.500000
v -3.500000 24.250000 -3.500000
v 3.500000 24.250000 -3.500000
v -3.500000 23.250000 -3.500000
v 3.500000 23.250000 -3.500000
vt 0.375000 0.000000
vt 0.625000 0.000000
vt 0.625000 0.250000
vt 0.375000 0.250000
vt 0.625000 0.500000
vt 0.375000 0.500000
vt 0.625000 0.750000
vt 0.375000 0.750000
vt 0.625000 1.000000
vt 0.375000 1.000000
vt 0.875000 0.000000
vt 0.875000 0.250000
vt 0.125000 0.000000
vt 0.125000 0.250000
vn 0.000000 0.000000 1.000000
vn 0.000000 0.000000 1.000000
vn 0.000000 0.000000 1.000000
vn 0.000000 0.000000 1.000000
vn 0.000000 1.000000 0.000000
vn 0.000000 1.000000 0.000000
vn 0.000000 1.000000 0.000000
vn 0.000000 1.000000 0.000000
vn 0.000000 0.000000 -1.000000
vn 0.000000 0.000000 -1.000000
vn 0.000000 0.000000 -1.000000
vn 0.000000 0.000000 -1.000000
vn 0.000000 -1.000000 0.000000
vn 0.000000 -1.000000 0.000000
vn 0.000000 -1.000000 0.000000
vn 0.000000 -1.000000 0.000000
vn 1.000000 0.000000 0.000000
vn 1.000000 0.000000 0.000000
vn 1.000000 0.000000 0.000000
vn 1.000000 0.000000 0.000000
vn -1.000000 0.000000 0.000000
vn -1.000000 0.000000 0.000000
vn -1.000000 0.000000 0.000000
vn -1.000000 0.000000 0.000000
s off
g polySurface3 polySurface12
usemtl initialShadingGroup
f 37/61/101 38/62/102 40/63/103 39/64/104
f 39/64/105 40/63/106 42/65/107 41/66/108
f 41/66/109 42/65/110 44/67/111 43/68/112
f 43/68/113 44/67/114 38/69/115 37/70/116
f 38/62/117 44/71/118 42/72/119 40/63/120
f 43/73/121 37/61/122 39/64/123 41/74/124
g default
v 3.000000 0.000000 3.000000
v 3.000000 24.000000 3.000000
v 3.000000 0.000000 -3.000000
v 3.000000 24.000000 -3.000000
vt 0.309598 0.394479
vt 0.690402 0.394479
vt 0.309598 0.605521
vt 0.690402 0.605521
vn -1.000000 0.000000 0.000000
vn -1.000000 0.000000 0.000000
vn -1.000000 0.000000 0.000000
vn -1.000000 0.000000 0.000000
s off
g pasted__pPlane1 group12
usemtl pasted__pasted__pasted__pasted__pasted__pasted__pasted__pasted__pasted__lambert2SG
f 45/75/125 46/76/126 48/78/127 47/77/128
g default
v 3.000000 0.000000 3.000000
v 3.000000 24.000000 3.000000
v -3.000000 0.000000 3.000000
v -3.000000 24.000000 3.000000
vt 0.309598 0.394479
vt 0.690402 0.394479
vt 0.309598 0.605521
vt 0.690402 0.605521
vn -0.000000 0.000000 1.000000
vn -0.000000 0.000000 1.000000
vn -0.000000 0.000000 1.000000
vn -0.000000 0.000000 1.000000
s off
g pasted__pasted__pPlane1 pasted__group12 group13
usemtl pasted__pasted__pasted__pasted__pasted__pasted__pasted__pasted__pasted__pasted__lambert2SG
f 49/79/129 50/80/130 52/82/131 51/81/132
g default
v 3.000000 0.000000 -3.000000
v 3.000000 24.000000 -3.000000
v -3.000000 0.000000 -3.000000
v -3.000000 24.000000 -3.000000
vt 0.309598 0.394479
vt 0.690402 0.394479
vt 0.309598 0.605521
vt 0.690402 0.605521
vn -0.000000 0.000000 1.000000
vn -0.000000 0.000000 1.000000
vn -0.000000 0.000000 1.000000
vn -0.000000 0.000000 1.000000
s off
g pasted__pasted__pasted__pPlane1 pasted__pasted__group12 pasted__group13 group14
usemtl pasted__pasted__pasted__pasted__pasted__pasted__pasted__pasted__pasted__pasted__pasted__lambert2SG
f 53/83/133 54/84/134 56/86/135 55/85/136
